<?xml version="1.0" encoding="utf-8"?>
<!-- Generator: Adobe Illustrator 22.0.1, SVG Export Plug-In . SVG Version: 6.00 Build 0)  -->
<svg version="1.1" id="Layer_1" xmlns="http://www.w3.org/2000/svg" xmlns:xlink="http://www.w3.org/1999/xlink" x="0px" y="0px"
	 viewBox="0 0 870.7 231.7" style="enable-background:new 0 0 870.7 231.7;" xml:space="preserve">
<style type="text/css">
	.st0{clip-path:url(#SVGID_2_);}
	.st1{clip-path:url(#SVGID_4_);enable-background:new    ;}
	.st2{clip-path:url(#SVGID_6_);}
	.st3{clip-path:url(#SVGID_8_);fill:#FF6B6B;}
	.st4{clip-path:url(#SVGID_10_);}
	.st5{clip-path:url(#SVGID_12_);fill:#A9A9A9;}
	.st6{clip-path:url(#SVGID_14_);}
	.st7{clip-path:url(#SVGID_16_);fill:#A9A9A9;}
	.st8{clip-path:url(#SVGID_18_);}
	.st9{clip-path:url(#SVGID_20_);fill:#A9A9A9;}
	.st10{clip-path:url(#SVGID_22_);}
	.st11{clip-path:url(#SVGID_24_);fill:#A9A9A9;}
	.st12{clip-path:url(#SVGID_26_);}
	.st13{clip-path:url(#SVGID_28_);fill:#A9A9A9;}
	.st14{clip-path:url(#SVGID_30_);}
	.st15{clip-path:url(#SVGID_32_);fill:#A9A9A9;}
	.st16{clip-path:url(#SVGID_34_);}
	.st17{clip-path:url(#SVGID_36_);fill:#A9A9A9;}
	.st18{clip-path:url(#SVGID_38_);}
	.st19{clip-path:url(#SVGID_40_);fill:#A9A9A9;}
	.st20{clip-path:url(#SVGID_42_);}
	.st21{clip-path:url(#SVGID_44_);fill:#A9A9A9;}
</style>
<g>
	<defs>
		<path id="SVGID_1_" d="M28.1,184.4c0,17.5,14.2,31.8,31.8,31.8c17.5,0,31.8-14.2,31.8-31.8v-31.8H59.9
			C42.3,152.6,28.1,166.9,28.1,184.4z M102.2,120.9V142h15.9c5.8,0,10.6-4.7,10.6-10.6c0-5.9-4.7-10.6-10.6-10.6L102.2,120.9z
			 M65.1,99.7c0,5.8,4.7,10.6,10.6,10.6h15.9V89.1H75.7C69.9,89.1,65.1,93.8,65.1,99.7z M102.2,46.7v31.8H134
			c17.5,0,31.8-14.2,31.8-31.8c0-17.5-14.2-31.8-31.8-31.8C116.4,14.9,102.2,29.2,102.2,46.7z M91.6,46.7c0-23.4,19-42.4,42.4-42.4
			c23.4,0,42.4,19,42.4,42.4c0,23.4-19,42.4-42.4,42.4h-31.8v21.2l15.9,0c11.7,0,21.2,9.5,21.2,21.2c0,11.7-9.5,21.2-21.2,21.2
			h-15.9v31.8c0,23.4-19,42.4-42.4,42.4c-23.4,0-42.4-19-42.4-42.4c0-23.4,19-42.4,42.4-42.4v0h31.8v-21.2H75.7
			c-11.7,0-21.2-9.5-21.2-21.2c0-11.7,9.5-21.2,21.2-21.2l15.9,0V46.7z"/>
	</defs>
	<clipPath id="SVGID_2_">
		<use xlink:href="#SVGID_1_"  style="overflow:visible;"/>
	</clipPath>
	<g class="st0">
		<defs>
			<rect id="SVGID_3_" x="-655.9" y="-573.1" width="2183" height="1480"/>
		</defs>
		<clipPath id="SVGID_4_">
			<use xlink:href="#SVGID_3_"  style="overflow:visible;"/>
		</clipPath>
		<g class="st1">
			<g>
				<defs>
					<rect id="SVGID_5_" x="17.1" y="3.9" width="160" height="223"/>
				</defs>
				<clipPath id="SVGID_6_">
					<use xlink:href="#SVGID_5_"  style="overflow:visible;"/>
				</clipPath>
				<g class="st2">
					<defs>
						<rect id="SVGID_7_" x="17.1" y="3.9" width="160" height="223"/>
					</defs>
					<clipPath id="SVGID_8_">
						<use xlink:href="#SVGID_7_"  style="overflow:visible;"/>
					</clipPath>
					<rect x="12.5" y="-0.6" class="st3" width="168.9" height="232.4"/>
				</g>
			</g>
		</g>
	</g>
</g>
<g>
	<defs>
		<path id="SVGID_9_" d="M349.4,153.6h-13.6v-9.2h-0.2c-1.3,2.9-3.5,5.4-6.6,7.6c-3.2,2.2-6.9,3.3-11.2,3.3c-3.7,0-6.9-0.7-9.6-2
			c-2.7-1.3-4.9-3-6.6-5.2c-1.7-2.2-3-4.6-3.8-7.4c-0.8-2.8-1.2-5.7-1.2-8.6V96.2h14.4V128c0,1.7,0.1,3.4,0.4,5.2
			c0.2,1.8,0.8,3.5,1.6,5c0.8,1.5,1.9,2.7,3.3,3.6c1.4,0.9,3.3,1.4,5.6,1.4c2.2,0,4.2-0.5,5.9-1.4c1.7-0.9,3.1-2.1,4.2-3.5
			c1.1-1.4,1.9-3.1,2.4-5c0.6-1.9,0.8-3.8,0.8-5.7V96.2h14.4V153.6z"/>
	</defs>
	<clipPath id="SVGID_10_">
		<use xlink:href="#SVGID_9_"  style="overflow:visible;"/>
	</clipPath>
	<g class="st4">
		<defs>
			<rect id="SVGID_11_" x="-651.9" y="-573.1" width="2183" height="1480"/>
		</defs>
		<clipPath id="SVGID_12_">
			<use xlink:href="#SVGID_11_"  style="overflow:visible;"/>
		</clipPath>
		<rect x="291.6" y="91.2" class="st5" width="62.9" height="69.1"/>
	</g>
</g>
<g>
	<defs>
		<path id="SVGID_13_" d="M363.4,96.2H377v9.2h0.2c1.3-2.9,3.5-5.4,6.6-7.6c3.1-2.2,6.9-3.3,11.2-3.3c3.7,0,7,0.7,9.6,2
			c2.7,1.3,4.9,3,6.6,5.2c1.7,2.2,3,4.6,3.8,7.4c0.8,2.8,1.2,5.7,1.2,8.6v35.9h-14.3v-31.8c0-1.7-0.1-3.4-0.4-5.3
			c-0.2-1.8-0.8-3.5-1.6-5c-0.8-1.5-1.9-2.7-3.3-3.7c-1.4-1-3.3-1.4-5.6-1.4c-2.3,0-4.3,0.5-6,1.4c-1.7,0.9-3.1,2.1-4.1,3.5
			c-1.1,1.4-1.9,3.1-2.5,5c-0.6,1.9-0.8,3.8-0.8,5.7v31.6h-14.4V96.2z"/>
	</defs>
	<clipPath id="SVGID_14_">
		<use xlink:href="#SVGID_13_"  style="overflow:visible;"/>
	</clipPath>
	<g class="st6">
		<defs>
			<rect id="SVGID_15_" x="-651.9" y="-573.1" width="2183" height="1480"/>
		</defs>
		<clipPath id="SVGID_16_">
			<use xlink:href="#SVGID_15_"  style="overflow:visible;"/>
		</clipPath>
		<rect x="358.4" y="89.5" class="st7" width="62.9" height="69.1"/>
	</g>
</g>
<g>
	<defs>
		<path id="SVGID_17_" d="M499.1,124.7c0-4.5,0.8-8.7,2.4-12.4c1.6-3.7,3.8-6.9,6.6-9.5c2.8-2.6,6.1-4.7,9.9-6.1
			c3.8-1.4,7.9-2.2,12.2-2.2c4.3,0,8.4,0.7,12.2,2.2c3.8,1.4,7.1,3.5,9.9,6.1c2.8,2.6,5,5.8,6.6,9.5c1.6,3.7,2.5,7.8,2.5,12.4
			c0,4.5-0.8,8.7-2.5,12.5c-1.6,3.7-3.8,6.9-6.6,9.6c-2.8,2.7-6.1,4.8-9.9,6.3c-3.8,1.5-7.9,2.3-12.2,2.3c-4.3,0-8.4-0.8-12.2-2.3
			c-3.8-1.5-7.1-3.6-9.9-6.3c-2.8-2.7-5-5.9-6.6-9.6C499.9,133.4,499.1,129.2,499.1,124.7 M513.7,124.7c0,2.2,0.3,4.5,1,6.7
			c0.7,2.2,1.7,4.2,3.1,6c1.4,1.8,3.1,3.2,5.1,4.3c2.1,1.1,4.5,1.7,7.4,1.7c2.9,0,5.3-0.6,7.4-1.7c2.1-1.1,3.8-2.5,5.1-4.3
			c1.4-1.7,2.4-3.8,3-6c0.7-2.2,1-4.5,1-6.7c0-2.2-0.3-4.4-1-6.6c-0.7-2.2-1.7-4.2-3-5.9c-1.4-1.8-3.1-3.2-5.1-4.2
			c-2.1-1.1-4.5-1.6-7.4-1.6c-2.9,0-5.3,0.5-7.4,1.6c-2.1,1.1-3.8,2.5-5.1,4.2c-1.4,1.7-2.4,3.7-3.1,5.9
			C514,120.2,513.7,122.4,513.7,124.7"/>
	</defs>
	<clipPath id="SVGID_18_">
		<use xlink:href="#SVGID_17_"  style="overflow:visible;"/>
	</clipPath>
	<g class="st8">
		<defs>
			<rect id="SVGID_19_" x="-651.9" y="-573.1" width="2183" height="1480"/>
		</defs>
		<clipPath id="SVGID_20_">
			<use xlink:href="#SVGID_19_"  style="overflow:visible;"/>
		</clipPath>
		<rect x="494.1" y="89.5" class="st9" width="72.4" height="70.7"/>
	</g>
</g>
<g>
	<defs>
		<path id="SVGID_21_" d="M640.4,94.5c3.7,0,7,0.7,9.6,2c2.7,1.3,4.9,3,6.6,5.2c1.7,2.2,3,4.6,3.8,7.4c0.8,2.8,1.2,5.7,1.2,8.6v35.9
			h-14.4v-31.8c0-1.7-0.1-3.4-0.4-5.3c-0.2-1.8-0.8-3.5-1.6-5c-0.8-1.5-1.9-2.7-3.3-3.7c-1.4-1-3.3-1.4-5.6-1.4
			c-2.2,0-4.1,0.5-5.7,1.4c-1.6,1-2.9,2.2-3.9,3.7c-1,1.5-1.8,3.2-2.3,5.1c-0.5,1.9-0.7,3.7-0.7,5.6v31.3h-14.3v-34.7
			c0-3.6-0.9-6.6-2.6-8.9c-1.7-2.3-4.4-3.5-8.1-3.5c-2.2,0-4,0.5-5.6,1.4c-1.6,0.9-2.9,2.1-3.9,3.5c-1,1.4-1.8,3.1-2.3,5
			c-0.5,1.9-0.8,3.8-0.8,5.7v31.6h-14.3V96.2h13.6v9.2h0.2c0.6-1.4,1.5-2.8,2.6-4.1c1.1-1.3,2.3-2.4,3.8-3.5c1.5-1,3.2-1.9,5.1-2.5
			c1.9-0.6,4-0.9,6.3-0.9c4.5,0,8.2,1,11.1,3c3,2,5.2,4.6,6.8,7.9c1.9-3.5,4.5-6.2,7.7-8.1C632.4,95.5,636.1,94.5,640.4,94.5"/>
	</defs>
	<clipPath id="SVGID_22_">
		<use xlink:href="#SVGID_21_"  style="overflow:visible;"/>
	</clipPath>
	<g class="st10">
		<defs>
			<rect id="SVGID_23_" x="-651.9" y="-573.1" width="2183" height="1480"/>
		</defs>
		<clipPath id="SVGID_24_">
			<use xlink:href="#SVGID_23_"  style="overflow:visible;"/>
		</clipPath>
		<rect x="566.9" y="89.5" class="st11" width="99.7" height="69.1"/>
	</g>
</g>
<g>
	<defs>
		<path id="SVGID_25_" d="M259.4,96.2V80.4c0-16,8-20.3,18.7-20.3c3.9,0,6.8,0.6,9.8,1.7v11.5c0,0-2.1-1.6-6.8-1.6
			c-5.1,0-7.5,1.8-7.5,8.9v15.7h14.3v11.5h-14.3v45.9h-14.1v-45.9h-10.5V96.2H259.4z"/>
	</defs>
	<clipPath id="SVGID_26_">
		<use xlink:href="#SVGID_25_"  style="overflow:visible;"/>
	</clipPath>
	<g class="st12">
		<defs>
			<rect id="SVGID_27_" x="-651.9" y="-573.1" width="2183" height="1480"/>
		</defs>
		<clipPath id="SVGID_28_">
			<use xlink:href="#SVGID_27_"  style="overflow:visible;"/>
		</clipPath>
		<rect x="243.8" y="55" class="st13" width="49" height="103.6"/>
	</g>
</g>
<g>
	<defs>
		<path id="SVGID_29_" d="M719.6,96.2v7.3h-0.4c-0.7-1-1.6-2-2.7-3c-1.1-1-2.5-2-4-2.9c-1.6-0.9-3.4-1.6-5.4-2.2
			c-2.1-0.6-4.4-0.9-7.1-0.9c-4.1,0-7.8,0.8-11.2,2.3c-3.4,1.6-6.4,3.7-8.8,6.4c-2.5,2.7-4.4,5.9-5.7,9.6c-1.4,3.7-2,7.6-2,11.8
			c0,4.2,0.7,8.2,2,11.9c1.3,3.7,3.2,6.9,5.6,9.7c2.4,2.8,5.4,4.9,8.8,6.6c3.5,1.6,7.4,2.5,11.8,2.5c4.1,0,7.9-0.9,11.4-2.6
			c3.5-1.8,6.3-4.3,8.3-7.7h0.2v8.6H734V96.2H719.6z M719,131.6c-0.8,2.2-1.9,4.2-3.4,5.9c-1.5,1.7-3.3,3.2-5.3,4.2
			c-2.1,1.1-4.4,1.6-7.1,1.6c-2.8,0-5.2-0.6-7.3-1.7c-2.1-1.1-3.8-2.5-5.1-4.3c-1.3-1.7-2.4-3.8-3-6c-0.7-2.2-1-4.5-1-6.7
			c0-2.2,0.3-4.4,1-6.6c0.7-2.2,1.7-4.2,3-5.9c1.4-1.8,3.1-3.2,5.1-4.2c2.1-1.1,4.5-1.6,7.3-1.6c2.6,0,5,0.6,7.1,1.7
			c2.1,1.1,3.9,2.6,5.3,4.3c1.5,1.8,2.6,3.7,3.4,6c0.8,2.2,1.1,4.5,1.1,6.7C720.1,127.1,719.7,129.4,719,131.6z"/>
	</defs>
	<clipPath id="SVGID_30_">
		<use xlink:href="#SVGID_29_"  style="overflow:visible;"/>
	</clipPath>
	<g class="st14">
		<defs>
			<rect id="SVGID_31_" x="-651.9" y="-573.1" width="2183" height="1480"/>
		</defs>
		<clipPath id="SVGID_32_">
			<use xlink:href="#SVGID_31_"  style="overflow:visible;"/>
		</clipPath>
		<rect x="667.1" y="89.5" class="st15" width="71.8" height="70.7"/>
	</g>
</g>
<g>
	<defs>
		<path id="SVGID_33_" d="M742.7,104.5l24.7-19.7V96h14.4v11.7h-14.4v26.8c0,5.7,1.7,8.5,7.5,8.5c4.4,0,6.8-1.6,6.8-1.6V153
			c-1.3,0.5-3,0.9-4.8,1.2c-1.7,0.3-3.4,0.4-5,0.4c-3.8,0-6.9-0.5-9.3-1.6c-2.4-1.1-4.3-2.6-5.7-4.4c-1.4-1.9-2.3-4-2.9-6.5
			c-0.5-2.4-0.8-5-0.8-7.8v-26.6h-10.5V104.5z"/>
	</defs>
	<clipPath id="SVGID_34_">
		<use xlink:href="#SVGID_33_"  style="overflow:visible;"/>
	</clipPath>
	<g class="st16">
		<defs>
			<rect id="SVGID_35_" x="-651.9" y="-573.1" width="2183" height="1480"/>
		</defs>
		<clipPath id="SVGID_36_">
			<use xlink:href="#SVGID_35_"  style="overflow:visible;"/>
		</clipPath>
		<rect x="737.7" y="79.7" class="st17" width="49" height="79.9"/>
	</g>
</g>
<g>
	<defs>
		<path id="SVGID_37_" d="M848.1,125.6v3.8h-43.8c0.2,2.1,0.7,4,1.6,5.7c0.9,1.7,2.1,3.2,3.6,4.4c1.5,1.2,3.2,2.2,5.1,2.9
			c1.9,0.7,3.9,1.1,6,1.1c3.6,0,6.6-0.7,9.1-2c2.5-1.3,4.5-3.1,6.1-5.4l9.6,7.6c-5.7,7.7-13.9,11.5-24.6,11.5
			c-4.5,0-8.6-0.7-12.3-2.1c-3.8-1.4-7-3.4-9.7-5.9c-2.8-2.5-4.9-5.7-6.5-9.4c-1.6-3.7-2.3-7.9-2.3-12.6c0-4.6,0.8-8.8,2.3-12.6
			c1.6-3.8,3.7-7,6.4-9.7c2.7-2.7,5.9-4.7,9.6-6.2c3.7-1.5,7.7-2.2,12-2.2c4,0,7.7,0.7,11.1,2c3.4,1.3,6.3,3.3,8.8,5.9
			c2.5,2.6,4.4,5.8,5.8,9.7C847.3,115.9,848.1,120.5,848.1,125.6z M833.7,119.2c0-1.8-0.3-3.6-0.8-5.3c-0.5-1.7-1.3-3.2-2.5-4.4
			c-1.1-1.3-2.5-2.3-4.2-3c-1.7-0.8-3.7-1.1-6-1.1c-4.3,0-8,1.3-10.9,3.9c-3,2.6-4.7,5.9-5,10H833.7z"/>
	</defs>
	<clipPath id="SVGID_38_">
		<use xlink:href="#SVGID_37_"  style="overflow:visible;"/>
	</clipPath>
	<g class="st18">
		<defs>
			<rect id="SVGID_39_" x="-651.9" y="-573.1" width="2183" height="1480"/>
		</defs>
		<clipPath id="SVGID_40_">
			<use xlink:href="#SVGID_39_"  style="overflow:visible;"/>
		</clipPath>
		<rect x="784.9" y="89.5" class="st19" width="68.1" height="70.7"/>
	</g>
</g>
<g>
	<defs>
		<path id="SVGID_41_" d="M488.3,153.6h-13.6V145h-0.2c-2,3.4-4.8,5.9-8.3,7.7c-3.5,1.8-7.4,2.6-11.4,2.6c-4.4,0-8.3-0.8-11.8-2.5
			c-3.5-1.6-6.4-3.8-8.9-6.6c-2.4-2.7-4.3-6-5.6-9.7c-1.3-3.7-2-7.7-2-11.9c0-4.2,0.7-8.2,2-11.8c1.4-3.7,3.3-6.9,5.7-9.6
			c2.5-2.7,5.4-4.8,8.9-6.4c3.4-1.5,7.2-2.3,11.2-2.3c2.6,0,5,0.3,7.1,0.9c2.1,0.6,3.9,1.3,5.4,2.2c1.6,0.9,2.9,1.8,4,2.9
			c1.1,1,2,2,2.8,3h0.4V73.2l14.3-11.5V153.6z M441,124.7c0,2.2,0.3,4.5,1,6.7c0.7,2.2,1.7,4.2,3,6c1.4,1.8,3.1,3.2,5.1,4.3
			c2.1,1.1,4.5,1.7,7.3,1.7c2.6,0,5-0.5,7.1-1.6c2.1-1.1,3.8-2.5,5.3-4.2c1.5-1.7,2.6-3.7,3.3-5.9c0.8-2.2,1.1-4.4,1.1-6.6
			c0-2.2-0.4-4.5-1.1-6.7c-0.8-2.2-1.9-4.2-3.3-6c-1.5-1.7-3.3-3.2-5.3-4.3c-2.1-1.1-4.4-1.7-7.1-1.7c-2.8,0-5.2,0.5-7.3,1.6
			c-2.1,1.1-3.8,2.5-5.1,4.2c-1.4,1.7-2.4,3.7-3,5.9C441.4,120.2,441,122.4,441,124.7z"/>
	</defs>
	<clipPath id="SVGID_42_">
		<use xlink:href="#SVGID_41_"  style="overflow:visible;"/>
	</clipPath>
	<g class="st20">
		<defs>
			<rect id="SVGID_43_" x="-651.9" y="-573.1" width="2183" height="1480"/>
		</defs>
		<clipPath id="SVGID_44_">
			<use xlink:href="#SVGID_43_"  style="overflow:visible;"/>
		</clipPath>
		<rect x="421.5" y="56.8" class="st21" width="71.8" height="103.5"/>
	</g>
</g>
</svg>
